{"title":"Pixels 2015 V2 CAM x264-MenaceIISociety","uid":12176927,"size":1046407192,"categoryP":"video","categoryS":"movies","magnet":"?xt=urn:btih:7c5d545c8d2b5f0247bfac5717dc60de418e2bb1&amp;dn=Pixels+2015+V2+CAM+x264-MenaceIISociety&amp;tr=udp%3A%2F%2Ftracker.openbittorrent.com%3A80&amp;tr=udp%3A%2F%2Fopen.demonii.com%3A1337&amp;tr=udp%3A%2F%2Ftracker.coppersurfer.tk%3A6969&amp;tr=udp%3A%2F%2Fexodus.desync.com%3A6969","seeders":5,"leechers":1,"uploader":"SS132203","files":4,"time":1438332942,"description":"Pixels 2015 V2 CAM x264-MenaceIISociety\n &lt;a href=&quot;\nhttp://imgsparrow.co/image/1n&quot; rel=&quot;nofollow&quot; target=&quot;_NEW&quot;&gt;\nhttp://imgsparrow.co/image/1n&lt;/a&gt;\n &lt;a href=&quot;\nhttp://imgsparrow.co/image/9b&quot; rel=&quot;nofollow&quot; target=&quot;_NEW&quot;&gt;\nhttp://imgsparrow.co/image/9b&lt;/a&gt;\n\nInfo : - \n\nThank MenaceIISociety Not ME!\n &lt;a href=&quot;\nhttp://www.imdb.com/title/tt2120120/&quot; rel=&quot;nofollow&quot; target=&quot;_NEW&quot;&gt;\nhttp://www.imdb.com/title/tt2120120/&lt;/a&gt;\nSource: CAM-NOBODY [THANKS]\n\nNOTE: different source. adjusted a few things\n\nGeneral\nComplete name: Pixels.2015.V2.CAM.x264-MenaceIISociety.mp4\nFormat: MPEG-4\nFormat profile: Base Media\nCodec ID: isom\nFile size: 975 MiB\nDuration: 1h 37mn\nOverall bit rate mode: Variable\nOverall bit rate: 1 401 Kbps\nEncoded date: UTC 2015-07-30 23:09:59\nTagged date: UTC 2015-07-30 23:09:59\n\nVideo\nID: 1\nFormat: AVC\nFormat/Info: Advanced Video Codec\nFormat profile: &lt;a class=&quot;__cf_email__&quot; href=&quot;/cdn-cgi/l/email-protection&quot; data-cfemail=&quot;145c7d737c5458203a25&quot;&gt;[email&amp;#160;protected]&lt;/a&gt;&lt;script data-cfhash='f9e31' type=&quot;text/javascript&quot;&gt;\n/* &lt;![CDATA[ */!function(){try{var t=&quot;currentScript&quot;in document?document.currentScript:function(){for(var t=document.getElementsByTagName(&quot;script&quot;),e=t.length;e--;)if(t[e].getAttribute(&quot;data-cfhash&quot;))return t[e]}();if(t&amp;&amp;t.previousSibling){var e,r,n,i,c=t.previousSibling,a=c.getAttribute(&quot;data-cfemail&quot;);if(a){for(e=&quot;&quot;,r=parseInt(a.substr(0,2),16),n=2;a.length-n;n+=2)i=parseInt(a.substr(n,2),16)^r,e+=String.fromCharCode(i);e=document.createTextNode(e),c.parentNode.replaceChild(e,c)}t.parentNode.removeChild(t);}}catch(u){}}()/* ]]&gt; */&lt;/script&gt;\nFormat settings, CABAC: Yes\nFormat settings, ReFrames: 3 frames\nCodec ID: avc1\nCodec ID/Info: Advanced Video Coding\nDuration: 1h 37mn\nBit rate mode: Variable\nBit rate: 1 311 Kbps\nMaximum bit rate: 40.0 Mbps\nWidth: 720 pixels\nHeight: 354 pixels\nDisplay aspect ratio: 2.034\nFrame rate mode: Constant\nFrame rate: 25.000 fps\nColor space: YUV\nChroma subsampling: 4:2:0\nBit depth: 8 bits\nScan type: Progressive\nBits/(Pixel*Frame): 0.206\nStream size: 912 MiB (94%)\nWriting library: x264 core 146 r2538 121396c\n\nAudio\nID: 2\nFormat: AAC\nFormat/Info: Advanced Audio Codec\nFormat profile: LC\nCodec ID: 40\nDuration: 1h 37mn\nBit rate mode: Variable\nBit rate: 85.9 Kbps\nMaximum bit rate: 97.6 Kbps\nChannel(s): 2 channels\nChannel positions: Front: L R\nSampling rate: 44.1 KHz\nCompression mode: Lossy\nStream size: 59.8 MiB (6%)\nEncoded date: UTC 2015-07-30 19:19:33\nTagged date: UTC 2015-07-30 23:10:53 \n\nScreens : - \n &lt;a href=&quot;\nhttp://imgsparrow.co/image/886&quot; rel=&quot;nofollow&quot; target=&quot;_NEW&quot;&gt;\nhttp://imgsparrow.co/image/886&lt;/a&gt; &lt;a href=&quot;\nhttp://imgsparrow.co/image/888&quot; rel=&quot;nofollow&quot; target=&quot;_NEW&quot;&gt;\nhttp://imgsparrow.co/image/888&lt;/a&gt; &lt;a href=&quot;\nhttp://imgsparrow.co/image/889&quot; rel=&quot;nofollow&quot; target=&quot;_NEW&quot;&gt;\nhttp://imgsparrow.co/image/889&lt;/a&gt; &lt;a href=&quot;\nhttp://imgsparrow.co/image/88L&quot; rel=&quot;nofollow&quot; target=&quot;_NEW&quot;&gt;\nhttp://imgsparrow.co/image/88L&lt;/a&gt; &lt;a href=&quot;\nhttp://imgsparrow.co/image/88N&quot; rel=&quot;nofollow&quot; target=&quot;_NEW&quot;&gt;\nhttp://imgsparrow.co/image/88N&lt;/a&gt; &lt;a href=&quot;\nhttp://imgsparrow.co/image/88t&quot; rel=&quot;nofollow&quot; target=&quot;_NEW&quot;&gt;\nhttp://imgsparrow.co/image/88t&lt;/a&gt; &lt;a href=&quot;\nhttp://imgsparrow.co/image/88E&quot; rel=&quot;nofollow&quot; target=&quot;_NEW&quot;&gt;\nhttp://imgsparrow.co/image/88E&lt;/a&gt; &lt;a href=&quot;\nhttp://imgsparrow.co/image/88J&quot; rel=&quot;nofollow&quot; target=&quot;_NEW&quot;&gt;\nhttp://imgsparrow.co/image/88J&lt;/a&gt; &lt;a href=&quot;\nhttp://imgsparrow.co/image/88U&quot; rel=&quot;nofollow&quot; target=&quot;_NEW&quot;&gt;\nhttp://imgsparrow.co/image/88U&lt;/a&gt; &lt;a href=&quot;\nhttp://imgsparrow.co/image/88u&quot; rel=&quot;nofollow&quot; target=&quot;_NEW&quot;&gt;\nhttp://imgsparrow.co/image/88u&lt;/a&gt;\n &lt;a href=&quot;\nhttp://imgsparrow.co/image/N2&quot; rel=&quot;nofollow&quot; target=&quot;_NEW&quot;&gt;\nhttp://imgsparrow.co/image/N2&lt;/a&gt;","torrent":{"xt":"urn:btih:7c5d545c8d2b5f0247bfac5717dc60de418e2bb1","amp;dn":"Pixels+2015+V2+CAM+x264-MenaceIISociety","amp;tr":["udp%3A%2F%2Ftracker.openbittorrent.com%3A80","udp%3A%2F%2Fopen.demonii.com%3A1337","udp%3A%2F%2Ftracker.coppersurfer.tk%3A6969","udp%3A%2F%2Fexodus.desync.com%3A6969"],"infoHash":"7c5d545c8d2b5f0247bfac5717dc60de418e2bb1","infoHashBuffer":{"type":"Buffer","data":[124,93,84,92,141,43,95,2,71,191,172,87,23,220,96,222,65,142,43,177]},"announce":[],"urlList":[]}}